<?xml version="1.0" encoding="UTF-8" standalone="no"?>
<!-- Created with Inkscape (http://www.inkscape.org/) -->

<svg
   xmlns:dc="http://purl.org/dc/elements/1.1/"
   xmlns:cc="http://creativecommons.org/ns#"
   xmlns:rdf="http://www.w3.org/1999/02/22-rdf-syntax-ns#"
   xmlns:svg="http://www.w3.org/2000/svg"
   xmlns="http://www.w3.org/2000/svg"
   xmlns:sodipodi="http://sodipodi.sourceforge.net/DTD/sodipodi-0.dtd"
   xmlns:inkscape="http://www.inkscape.org/namespaces/inkscape"
   id="svg2985"
   version="1.1"
   inkscape:version="0.48.5 r10040"
   width="1000"
   height="474.70407"
   xml:space="preserve"
   sodipodi:docname="A.svg"><metadata
     id="metadata2991"><rdf:RDF><cc:Work
         rdf:about=""><dc:format>image/svg+xml</dc:format><dc:type
           rdf:resource="http://purl.org/dc/dcmitype/StillImage" /><dc:title></dc:title></cc:Work></rdf:RDF></metadata><defs
     id="defs2989"><linearGradient
       x1="0"
       y1="0"
       x2="1"
       y2="0"
       gradientUnits="userSpaceOnUse"
       gradientTransform="matrix(10.52527,-10.128694,-10.128694,-10.52527,295.50976,207.88294)"
       spreadMethod="pad"
       id="linearGradient3125"><stop
         style="stop-opacity:1;stop-color:#532913"
         offset="0"
         id="stop3127" /><stop
         style="stop-opacity:1;stop-color:#764c21"
         offset="0.20076162"
         id="stop3129" /><stop
         style="stop-opacity:1;stop-color:#997432"
         offset="0.33926111"
         id="stop3131" /><stop
         style="stop-opacity:1;stop-color:#bb9e43"
         offset="0.4812595"
         id="stop3133" /><stop
         style="stop-opacity:1;stop-color:#ccb35b"
         offset="0.60007781"
         id="stop3135" /><stop
         style="stop-opacity:1;stop-color:#e1cba2"
         offset="0.67736787"
         id="stop3137" /><stop
         style="stop-opacity:1;stop-color:#cbb259"
         offset="0.77430302"
         id="stop3139" /><stop
         style="stop-opacity:1;stop-color:#522813"
         offset="1"
         id="stop3141" /></linearGradient><clipPath
       clipPathUnits="userSpaceOnUse"
       id="clipPath3149"><path
         d="m 0,0 595.276,0 0,841.89 L 0,841.89 0,0 z"
         id="path3151"
         inkscape:connector-curvature="0" /></clipPath><clipPath
       clipPathUnits="userSpaceOnUse"
       id="clipPath3181"><path
         d="m 0,0 595.276,0 0,841.89 L 0,841.89 0,0 z"
         id="path3183"
         inkscape:connector-curvature="0" /></clipPath><clipPath
       clipPathUnits="userSpaceOnUse"
       id="clipPath3197"><path
         d="m 0,0 595.276,0 0,841.89 L 0,841.89 0,0 z"
         id="path3199"
         inkscape:connector-curvature="0" /></clipPath><clipPath
       clipPathUnits="userSpaceOnUse"
       id="clipPath3181-2"><path
         d="m 0,0 595.276,0 0,841.89 L 0,841.89 0,0 z"
         id="path3183-5"
         inkscape:connector-curvature="0" /></clipPath><clipPath
       clipPathUnits="userSpaceOnUse"
       id="clipPath3772"><path
         inkscape:connector-curvature="0"
         d="m 172.346,194.91 38.239,0 0,19.828 -38.239,0 0,-19.828 z"
         id="path3774" /></clipPath><clipPath
       clipPathUnits="userSpaceOnUse"
       id="clipPath3758"><path
         inkscape:connector-curvature="0"
         d="m 172.35,196.608 38.236,0 0,18.131 -38.236,0 0,-18.131 z"
         id="path3760" /></clipPath></defs><sodipodi:namedview
     pagecolor="#ffffff"
     bordercolor="#666666"
     borderopacity="1"
     objecttolerance="10"
     gridtolerance="10"
     guidetolerance="10"
     inkscape:pageopacity="0"
     inkscape:pageshadow="2"
     inkscape:window-width="1025"
     inkscape:window-height="1029"
     id="namedview2987"
     showgrid="false"
     fit-margin-left="0.5"
     fit-margin-bottom="0.5"
     fit-margin-top="0.5"
     fit-margin-right="0.5"
     inkscape:zoom="0.32"
     inkscape:cx="570.93384"
     inkscape:cy="475.06451"
     inkscape:window-x="885"
     inkscape:window-y="-12"
     inkscape:window-maximized="0"
     inkscape:current-layer="g3327"><inkscape:grid
       type="xygrid"
       id="grid3237"
       empspacing="5"
       visible="true"
       enabled="true"
       snapvisiblegridlinesonly="true"
       originx="-300.60299px"
       originy="-313.16858px" /></sodipodi:namedview><g
     id="g2993"
     inkscape:groupmode="layer"
     inkscape:label="trace-sport-stars"
     transform="matrix(1.25,0,0,-1.25,-602.17049,1028.0538)"><g
       id="g3327"
       transform="matrix(0.33658934,0,0,0.33658934,445.19739,684.83834)"
       style="fill:#ffffff"><g
         id="g3754"
         transform="matrix(62.099681,0,0,62.099681,-10593.135,-12927.529)"><g
           id="g3756"
           clip-path="url(#clipPath3758)"><g
             id="g3762"
             transform="translate(209.84441,198.6261)"><path
               d="M 0,0 C 0,0.04 -0.009,0.067 -0.028,0.08 -0.046,0.094 -0.077,0.1 -0.12,0.1 l -0.181,0 0,-0.295 0.181,0 c 0.046,0 0.078,0.008 0.095,0.025 C -0.009,-0.154 0,-0.13 0,-0.1 L 0,0 z m -0.13,-0.325 -0.171,0 0,-0.276 -0.14,0 0,0.832 0.326,0 c 0.093,0 0.16,-0.02 0.2,-0.058 0.04,-0.038 0.06,-0.093 0.06,-0.163 l 0,-0.115 C 0.145,-0.145 0.137,-0.181 0.12,-0.213 0.103,-0.244 0.071,-0.274 0.025,-0.3 l 0.22,-0.301 -0.17,0 -0.205,0.276 z m -0.727,0.12 c 0,-0.097 0.015,-0.188 0.045,-0.273 0.03,-0.085 0.074,-0.16 0.131,-0.226 0.056,-0.065 0.128,-0.116 0.215,-0.152 0.087,-0.037 0.189,-0.055 0.306,-0.055 0.113,0 0.213,0.018 0.3,0.055 0.087,0.036 0.159,0.087 0.215,0.152 0.057,0.066 0.1,0.141 0.131,0.226 0.03,0.085 0.045,0.176 0.045,0.273 0,0.097 -0.015,0.188 -0.045,0.273 C 0.455,0.153 0.412,0.228 0.355,0.293 0.299,0.358 0.227,0.409 0.14,0.446 0.053,0.483 -0.047,0.501 -0.16,0.501 -0.277,0.501 -0.379,0.483 -0.466,0.446 -0.553,0.409 -0.625,0.358 -0.681,0.293 -0.738,0.228 -0.782,0.153 -0.812,0.068 -0.842,-0.017 -0.857,-0.108 -0.857,-0.205 m -0.21,0 c 0,0.123 0.021,0.24 0.063,0.35 0.041,0.111 0.101,0.207 0.18,0.291 0.078,0.083 0.173,0.148 0.285,0.195 0.112,0.047 0.238,0.07 0.379,0.07 0.14,0 0.265,-0.023 0.375,-0.07 C 0.325,0.584 0.42,0.519 0.498,0.436 0.577,0.352 0.637,0.256 0.679,0.145 0.72,0.035 0.741,-0.082 0.741,-0.205 0.741,-0.332 0.72,-0.45 0.679,-0.558 0.637,-0.667 0.577,-0.763 0.498,-0.846 0.42,-0.93 0.325,-0.995 0.215,-1.042 c -0.11,-0.046 -0.235,-0.07 -0.375,-0.07 -0.141,0 -0.267,0.024 -0.379,0.07 -0.112,0.047 -0.207,0.112 -0.285,0.196 -0.079,0.083 -0.139,0.179 -0.18,0.288 -0.042,0.108 -0.063,0.226 -0.063,0.353"
               style="fill:#00adef;fill-opacity:1;fill-rule:nonzero;stroke:none"
               id="path3764"
               inkscape:connector-curvature="0" /></g><path
             d="m 210.585,200.234 -38.239,0 0,14.504 38.239,0 0,-14.504 z"
             style="fill:#00adef;fill-opacity:1;fill-rule:nonzero;stroke:none"
             id="path3766"
             inkscape:connector-curvature="0" /></g></g><g
         id="g3768"
         transform="matrix(62.099681,0,0,62.099681,-10593.135,-12927.529)"><g
           id="g3770"
           clip-path="url(#clipPath3772)"><g
             id="g3776"
             transform="translate(199.5421,206.6371)"><path
               d="M 0,0 0,-0.052 C 0,-0.824 -0.409,-0.99 -0.913,-0.99 l -0.001,0 c -0.504,0 -0.913,0.166 -0.913,0.938 l 0,1.721 c 0,0.771 0.409,0.936 0.913,0.936 l 0.001,0 C -0.409,2.605 0,2.44 0,1.669 l -0.003,-0.041 1.487,0 L 1.517,0.002 0,0 z m -6.571,0.917 -1.064,0 0.191,0.493 c 0.31,0.741 0.528,0.928 0.873,0.928 l 0,-1.421 z m -5.605,1.061 c 0,-0.328 -0.167,-0.593 -0.94,-0.593 l -0.796,0.002 0,1.194 0.793,0 c 0.774,0 0.943,-0.274 0.943,-0.601 l 0,-0.002 z m 19.027,-0.065 0,2.021 -5.4,-0.004 0,-0.527 C 0.992,3.815 0.236,4.094 -0.909,4.094 l 0,0 c -2.175,0 -2.956,-0.85 -2.956,-2.145 l 0,-1.901 c 0,-0.642 -0.125,-0.765 -0.331,-0.768 -0.212,0.003 -0.332,0.155 -0.332,0.768 l 0,3.886 -2.627,0 c -0.941,0 -1.643,-0.44 -2.137,-1.752 l -0.856,-2.489 c -0.081,-0.222 -0.177,-0.256 -0.28,-0.257 -0.118,0 -0.231,0.072 -0.309,0.319 l -0.288,0.613 c 0.714,0.333 0.962,0.895 0.962,1.515 l 0,0.192 c 0,1.016 -0.588,1.859 -2.985,1.859 l -2.912,0 -0.013,0 -7.03,0 0,-2.021 1.631,0 0.001,0.424 c 0,0.134 0.109,0.243 0.244,0.243 l 0.655,-10e-4 -10e-4,-3.725 c 0,-0.691 0.562,-1.25 1.256,-1.25 l 1.24,0 0,1.399 -0.016,-0.002 c -0.247,0 -0.449,0.201 -0.449,0.448 l 0,3.13 0.658,10e-4 c 0.135,0 0.243,-0.109 0.243,-0.243 l 0,-0.424 1.581,0 0,0.023 0.001,-0.023 0,-2.467 c 0,-0.247 -0.2,-0.447 -0.449,-0.447 l 0,-1.394 2.497,0 10e-4,2.411 0.209,-0.002 c 0.332,0 0.622,-0.157 0.772,-0.428 l 1.035,-1.981 1.466,0 0.024,0 0.592,0 c 0.917,0 1.115,0.201 1.414,0.951 l 0.365,1.02 1.468,0 -0.002,-1.971 2.378,0 0.001,0 11.039,0 0,2.066 -1.647,0 0.003,-0.424 c 0,-0.134 -0.109,-0.241 -0.245,-0.241 l -1.465,0.004 0,1.147 1.231,0 0,1.338 -1.231,0 0,1.086 1.465,0 c 0.136,0 0.245,-0.109 0.245,-0.243 l -0.003,-0.425 1.647,0 z"
               style="fill:#ffffff;fill-opacity:1;fill-rule:nonzero;stroke:none"
               id="path3778"
               inkscape:connector-curvature="0" /></g><g
             id="g3780"
             transform="translate(200.511,197.5406)"><path
               d="M 0,0 -17.802,-0.933 -18.09,4.551 -0.288,5.485 0,0 z"
               style="fill:#231f20;fill-opacity:1;fill-rule:nonzero;stroke:none"
               id="path3782"
               inkscape:connector-curvature="0" /></g><g
             id="g3784"
             transform="translate(185.9138,198.8168)"><path
               d="m 0,0 c 0.008,-0.161 0,-0.302 -0.027,-0.422 -0.026,-0.119 -0.08,-0.222 -0.163,-0.307 -0.083,-0.086 -0.2,-0.152 -0.351,-0.199 -0.151,-0.046 -0.348,-0.076 -0.59,-0.089 -0.187,-0.009 -0.373,-0.001 -0.559,0.027 -0.186,0.028 -0.35,0.071 -0.492,0.128 l 0.091,0.571 c 0.151,-0.037 0.302,-0.066 0.456,-0.087 0.153,-0.021 0.314,-0.027 0.482,-0.019 0.093,0.005 0.169,0.014 0.226,0.027 0.058,0.012 0.102,0.033 0.133,0.062 0.031,0.03 0.051,0.066 0.06,0.11 0.008,0.044 0.011,0.1 0.008,0.168 -0.004,0.07 -0.011,0.128 -0.019,0.173 -0.009,0.045 -0.031,0.081 -0.069,0.108 -0.037,0.027 -0.092,0.05 -0.166,0.069 -0.074,0.018 -0.178,0.038 -0.311,0.061 -0.196,0.031 -0.354,0.067 -0.474,0.108 -0.12,0.04 -0.214,0.095 -0.281,0.165 -0.066,0.069 -0.113,0.159 -0.14,0.271 -0.027,0.111 -0.044,0.254 -0.054,0.428 -0.008,0.161 0,0.299 0.027,0.413 0.027,0.115 0.079,0.21 0.16,0.287 0.08,0.077 0.191,0.136 0.332,0.177 0.142,0.041 0.325,0.068 0.547,0.08 0.142,0.007 0.296,0.007 0.461,0 0.165,-0.007 0.339,-0.025 0.522,-0.054 l -0.041,-0.61 c -0.185,0.022 -0.346,0.038 -0.48,0.045 -0.134,0.008 -0.275,0.008 -0.42,0 C -1.213,1.687 -1.278,1.679 -1.33,1.668 -1.381,1.658 -1.42,1.64 -1.448,1.616 -1.476,1.592 -1.494,1.56 -1.504,1.521 -1.513,1.481 -1.516,1.433 -1.513,1.375 -1.509,1.297 -1.503,1.236 -1.494,1.193 -1.485,1.15 -1.463,1.115 -1.428,1.09 -1.393,1.064 -1.339,1.043 -1.267,1.025 -1.195,1.008 -1.095,0.988 -0.968,0.965 -0.749,0.925 -0.577,0.881 -0.451,0.835 -0.326,0.788 -0.231,0.73 -0.165,0.66 -0.101,0.59 -0.059,0.503 -0.04,0.396 -0.022,0.291 -0.008,0.159 0,0"
               style="fill:#ffffff;fill-opacity:1;fill-rule:nonzero;stroke:none"
               id="path3786"
               inkscape:connector-curvature="0" /></g><g
             id="g3788"
             transform="translate(187.89549,200.2583)"><path
               d="m 0,0 c -0.006,0.116 -0.037,0.2 -0.093,0.252 -0.056,0.052 -0.16,0.075 -0.311,0.067 l -0.552,-0.029 0.051,-0.973 0.551,0.029 c 0.158,0.008 0.261,0.043 0.308,0.106 C 0,-0.486 0.021,-0.397 0.015,-0.28 L 0,0 z M 0.744,-0.315 C 0.76,-0.618 0.685,-0.851 0.519,-1.011 0.353,-1.172 0.073,-1.263 -0.321,-1.283 l -0.551,-0.029 0.051,-0.978 -0.726,-0.037 -0.169,3.222 1.317,0.069 c 0.196,0.011 0.363,0 0.5,-0.031 C 0.239,0.901 0.353,0.849 0.442,0.778 0.532,0.707 0.599,0.615 0.643,0.502 0.689,0.389 0.714,0.258 0.722,0.106 l 0.022,-0.421 z"
               style="fill:#ffffff;fill-opacity:1;fill-rule:nonzero;stroke:none"
               id="path3790"
               inkscape:connector-curvature="0" /></g><g
             id="g3792"
             transform="translate(190.6357,200.38271)"><path
               d="M 0,0 C -0.006,0.126 -0.053,0.223 -0.139,0.291 -0.225,0.359 -0.36,0.389 -0.544,0.379 -0.728,0.369 -0.859,0.326 -0.937,0.249 -1.016,0.172 -1.052,0.071 -1.045,-0.055 l 0.063,-1.219 c 0.007,-0.126 0.054,-0.223 0.14,-0.291 0.085,-0.069 0.221,-0.098 0.405,-0.089 0.184,0.01 0.315,0.054 0.393,0.13 0.078,0.077 0.114,0.179 0.108,0.305 L 0,0 z M 0.793,-1.244 C 0.8,-1.367 0.783,-1.488 0.744,-1.608 0.705,-1.729 0.639,-1.838 0.545,-1.937 0.452,-2.036 0.327,-2.117 0.17,-2.182 0.013,-2.247 -0.178,-2.285 -0.404,-2.297 c -0.229,-0.012 -0.424,0.006 -0.585,0.054 -0.161,0.048 -0.293,0.117 -0.396,0.205 -0.104,0.089 -0.181,0.19 -0.232,0.306 -0.052,0.115 -0.081,0.234 -0.087,0.357 l -0.07,1.345 c -0.007,0.122 0.009,0.244 0.049,0.364 0.038,0.12 0.105,0.23 0.198,0.328 0.094,0.099 0.218,0.181 0.373,0.245 0.155,0.065 0.347,0.104 0.576,0.116 C -0.352,1.035 -0.157,1.016 0.005,0.968 0.168,0.92 0.3,0.852 0.404,0.763 0.507,0.675 0.585,0.573 0.636,0.458 0.687,0.342 0.716,0.224 0.723,0.101 l 0.07,-1.345 z"
               style="fill:#ffffff;fill-opacity:1;fill-rule:nonzero;stroke:none"
               id="path3794"
               inkscape:connector-curvature="0" /></g><g
             id="g3796"
             transform="translate(193.48511,200.55119)"><path
               d="m 0,0 c -0.007,0.123 -0.039,0.208 -0.096,0.257 -0.058,0.049 -0.161,0.069 -0.309,0.062 l -0.576,-0.03 0.05,-0.949 0.576,0.03 c 0.155,0.008 0.256,0.042 0.305,0.101 0.049,0.059 0.07,0.15 0.064,0.272 L 0,0 z m -0.472,-1.267 -0.426,-0.022 0.053,-1.002 -0.727,-0.038 -0.168,3.223 1.34,0.07 c 0.197,0.011 0.364,0 0.501,-0.031 C 0.239,0.901 0.353,0.849 0.442,0.778 0.531,0.707 0.599,0.615 0.643,0.502 0.688,0.389 0.714,0.258 0.722,0.106 L 0.743,-0.291 C 0.754,-0.494 0.725,-0.665 0.658,-0.802 0.591,-0.94 0.477,-1.047 0.316,-1.124 l 0.837,-1.062 -0.861,-0.045 -0.764,0.964 z"
               style="fill:#ffffff;fill-opacity:1;fill-rule:nonzero;stroke:none"
               id="path3798"
               inkscape:connector-curvature="0" /></g><g
             id="g3800"
             transform="translate(195.98351,201.0222)"><path
               d="M 0,0 0.136,-2.579 -0.591,-2.618 -0.726,-0.038 -1.592,-0.084 -1.626,0.56 0.832,0.689 0.866,0.045 0,0 z"
               style="fill:#ffffff;fill-opacity:1;fill-rule:nonzero;stroke:none"
               id="path3802"
               inkscape:connector-curvature="0" /></g><g
             id="g3804"
             transform="translate(199.3138,199.5191)"><path
               d="m 0,0 c 0.008,-0.162 -0.001,-0.302 -0.027,-0.422 -0.025,-0.119 -0.08,-0.222 -0.163,-0.307 -0.083,-0.085 -0.2,-0.152 -0.351,-0.198 -0.152,-0.047 -0.348,-0.077 -0.59,-0.09 -0.187,-0.009 -0.373,-0.001 -0.559,0.027 -0.186,0.028 -0.35,0.071 -0.492,0.129 l 0.091,0.57 c 0.15,-0.037 0.302,-0.066 0.456,-0.088 0.153,-0.021 0.314,-0.027 0.482,-0.018 0.093,0.005 0.168,0.014 0.226,0.027 0.057,0.012 0.101,0.033 0.132,0.062 0.031,0.029 0.051,0.066 0.06,0.11 0.009,0.044 0.012,0.1 0.009,0.167 -0.004,0.071 -0.011,0.129 -0.02,0.174 -0.008,0.044 -0.031,0.08 -0.068,0.107 -0.037,0.028 -0.093,0.051 -0.166,0.07 -0.074,0.018 -0.178,0.038 -0.312,0.061 -0.195,0.031 -0.354,0.067 -0.473,0.108 -0.121,0.041 -0.214,0.095 -0.281,0.164 -0.066,0.07 -0.113,0.16 -0.14,0.272 -0.027,0.111 -0.045,0.254 -0.054,0.428 -0.009,0.161 0,0.298 0.026,0.413 0.027,0.114 0.08,0.21 0.16,0.287 0.08,0.077 0.191,0.136 0.333,0.177 0.142,0.041 0.324,0.068 0.547,0.08 0.142,0.007 0.295,0.007 0.461,0 0.165,-0.008 0.339,-0.026 0.522,-0.055 L -0.232,1.646 c -0.186,0.023 -0.346,0.037 -0.481,0.045 -0.134,0.008 -0.274,0.007 -0.419,0 C -1.213,1.687 -1.279,1.679 -1.33,1.669 -1.381,1.658 -1.421,1.64 -1.449,1.616 -1.476,1.592 -1.495,1.56 -1.504,1.521 -1.514,1.481 -1.516,1.433 -1.513,1.374 -1.509,1.297 -1.503,1.236 -1.494,1.193 -1.486,1.15 -1.464,1.115 -1.428,1.09 -1.393,1.064 -1.34,1.042 -1.267,1.025 -1.195,1.008 -1.095,0.988 -0.968,0.965 -0.749,0.925 -0.577,0.881 -0.452,0.834 -0.326,0.787 -0.231,0.729 -0.166,0.66 -0.101,0.59 -0.059,0.503 -0.04,0.397 -0.022,0.291 -0.009,0.159 0,0"
               style="fill:#ffffff;fill-opacity:1;fill-rule:nonzero;stroke:none"
               id="path3806"
               inkscape:connector-curvature="0" /></g></g></g></g></g></svg>