<?xml version="1.0"?>
<svg xmlns="http://www.w3.org/2000/svg" id="Layer_1" data-name="Layer 1" viewBox="0 0 505 216" width="505" height="216"><defs><style>.cls-1{fill:#282828;}</style></defs><title>logo_&#x43A;&#x438;&#x43D;&#x43E;&#x43C;&#x438;&#x43A;&#x441;</title><path class="cls-1" d="M201.62,109.82h-1.28v10.69h-4.9v-25h4.9v11.08l1.14-.5,6.9-10.58H214L206.66,106l-1.93,1.36,2,1.39,8.33,11.76h-6Z"/><path class="cls-1" d="M231.21,106.64l.29-3.25h-.18l-1.68,3.36-9.33,13.76h-3.68v-25h4.9v13.62l-.36,3.36h.21l1.75-3.47,9.33-13.51h3.65v25h-4.9Z"/><path class="cls-1" d="M254.9,110h-9.14v10.47h-4.9v-25h4.9v10.19h9.14V95.49h4.9v25h-4.9Z"/><path class="cls-1" d="M263.09,108q0-6.25,2.75-9.63A9.55,9.55,0,0,1,273.7,95a11,11,0,0,1,4.68.93,8.81,8.81,0,0,1,3.33,2.64,11.67,11.67,0,0,1,2,4.12,20.42,20.42,0,0,1,.64,5.32q0,6.25-2.76,9.63A9.58,9.58,0,0,1,273.7,121a11.13,11.13,0,0,1-4.72-.93,8.65,8.65,0,0,1-3.3-2.65,11.69,11.69,0,0,1-1.95-4.11A20.36,20.36,0,0,1,263.09,108Zm5.14,0a17.84,17.84,0,0,0,.32,3.48,9.19,9.19,0,0,0,1,2.74,5,5,0,0,0,1.7,1.79,5,5,0,0,0,6.5-1.4q1.42-2,1.43-6.61a18.23,18.23,0,0,0-.3-3.4,9.78,9.78,0,0,0-.95-2.75,5,5,0,0,0-1.68-1.84,5,5,0,0,0-6.58,1.43C268.71,102.84,268.23,105,268.23,108Z"/><path class="cls-1" d="M307,107.54l.54-5h-.22l-1.53,4-5.33,9.33h-1.57l-5.61-9.36-1.57-4h-.18l.71,4.93v13h-4.64v-25H292l6.68,11.44,1.18,2.86H300l1.07-2.93,6.33-11.37h4.43v25H307Z"/><path class="cls-1" d="M331.17,106.64l.28-3.25h-.18l-1.68,3.36-9.32,13.76h-3.68v-25h4.89v13.62l-.35,3.36h.21l1.75-3.47,9.33-13.51h3.64v25h-4.89Z"/><path class="cls-1" d="M347,109.82h-1.29v10.69h-4.9v-25h4.9v11.08l1.15-.5,6.89-10.58h5.58L352,106l-1.93,1.36,2,1.39,8.32,11.76h-6Z"/><path class="cls-1" d="M377.2,119.48a7.39,7.39,0,0,1-2.92,1.17,18.14,18.14,0,0,1-3.62.36,12.79,12.79,0,0,1-4.27-.7,9.06,9.06,0,0,1-3.56-2.25,11.17,11.17,0,0,1-2.45-4,17.46,17.46,0,0,1-.91-6,16.26,16.26,0,0,1,1-6.16,11.3,11.3,0,0,1,2.64-4,9.79,9.79,0,0,1,3.63-2.18,12.76,12.76,0,0,1,4-.66,19.55,19.55,0,0,1,3.62.29,13.52,13.52,0,0,1,2.45.68l-1,4.14a7.31,7.31,0,0,0-2-.57,17.53,17.53,0,0,0-2.73-.18,6,6,0,0,0-4.77,2.11q-1.8,2.12-1.8,6.56a13.76,13.76,0,0,0,.42,3.52,7.71,7.71,0,0,0,1.31,2.73,6,6,0,0,0,2.18,1.75,6.88,6.88,0,0,0,3,.63,10.09,10.09,0,0,0,2.72-.32,7.88,7.88,0,0,0,1.92-.83Z"/><polygon class="cls-1" points="148.94 107.14 134.33 107.14 127.81 95.46 142.42 95.46 148.94 107.14"/><polygon class="cls-1" points="148.94 108.84 134.33 108.84 127.81 120.51 142.42 120.51 148.94 108.84"/><polygon class="cls-1" points="169.25 107.14 154.64 107.14 148.12 95.46 162.73 95.46 169.25 107.14"/><polygon class="cls-1" points="169.25 108.84 154.64 108.84 148.12 120.51 162.73 120.51 169.25 108.84"/><polygon class="cls-1" points="189.56 107.14 174.96 107.14 168.43 95.46 183.04 95.46 189.56 107.14"/><polygon class="cls-1" points="189.56 108.84 174.96 108.84 168.43 120.51 183.04 120.51 189.56 108.84"/></svg>
