<?xml version="1.0" encoding="UTF-8" standalone="no"?>
<!-- Created with Inkscape (http://www.inkscape.org/) -->

<svg
   xmlns:dc="http://purl.org/dc/elements/1.1/"
   xmlns:cc="http://creativecommons.org/ns#"
   xmlns:rdf="http://www.w3.org/1999/02/22-rdf-syntax-ns#"
   xmlns:svg="http://www.w3.org/2000/svg"
   xmlns="http://www.w3.org/2000/svg"
   version="1.1"
   width="160"
   height="185"
   viewBox="0 0 45.155556 52.211111"
   id="svg2"
   xml:space="preserve"
   style="fill-rule:evenodd"><metadata
   id="metadata34"><rdf:RDF><cc:Work
       rdf:about=""><dc:format>image/svg+xml</dc:format><dc:type
         rdf:resource="http://purl.org/dc/dcmitype/StillImage" /><dc:title></dc:title></cc:Work></rdf:RDF></metadata>
 <defs
   id="defs4"><style
     type="text/css"
     id="style6" /></defs>
 <g
   transform="matrix(0.35612408,0,0,0.35612408,-30.980648,-11.805336)"
   id="g3022"
   style="fill:#ca1b52;fill-opacity:1"><path
     d="m 82.75,160.6875 0,14.3125 17.40625,0 0,-14.3125 -3.9375,0 0,10.875 -2.8125,0 0,-7.125 -3.90625,0 0,7.125 -2.8125,0 0,-10.875 z"
     transform="matrix(0.79248285,0,0,0.79248285,86.993971,33.149501)"
     id="path10"
     style="fill:#ca1b52;fill-opacity:1" /><path
     d="m 179.083,160.502 0,11.327 -3.119,0 0,-5.69 -3.966,0 0,5.69 -3.119,0 0,-11.327 3.119,0 0,2.923 3.966,0 0,-2.923 z"
     id="polygon12"
     style="fill:#ca1b52" /><path
     d="m 189.449,160.502 1.632,0 0.231,0 1.163,0 0,11.327 -3.119,0 0,-6.22 -4.059,6.22 -3.026,0 0,-11.327 3.119,0 0,6.219 z"
     id="polygon18"
     style="fill:#ca1b52" /><path
     d="m 135.937,171.829 -3.119,0 0,-6.137 -1.949,3.41 -3.126,0.001 -1.909,-3.34 0,6.066 -3.118,0 0,-11.327 3.237,0 3.353,5.866 3.352,-5.866 3.279,0 z"
     id="polygon20"
     style="fill:#ca1b52" /><path
     d="m 142.412,160.502 3.6771,0 4.5406,11.3275 -12.7584,0 4.5407,-11.3275 z m -0.093,8.6136 3.8629,0 -1.9314,-4.8184 -1.9315,4.8184 z"
     id="path22"
     style="fill:#ca1b52;fill-opacity:1" /><path
     d="m 195.663,160.502 3.1186,0 0,6.2191 4.0591,-6.2191 1.6318,0 0.2311,0 1.1628,0 0,11.3275 -3.1186,0 0,-6.2199 -4.0596,6.2199 -3.0252,0 0,-11.3275 z m 5.1017,-5.8157 c 1.1945,0 2.1632,0.9687 2.1632,2.1632 0,1.1945 -0.9687,2.1632 -2.1632,2.1632 -1.1945,0 -2.1632,-0.9687 -2.1632,-2.1632 0,-1.1945 0.9687,-2.1632 2.1632,-2.1632 z"
     id="path24"
     style="fill:#ca1b52;fill-opacity:1" /><path
     d="m 114.512,160.502 c 3.1276,0 5.664,2.5364 5.664,5.6639 0,3.1277 -2.5364,5.6641 -5.664,5.6641 -3.1276,0 -5.664,-2.5364 -5.664,-5.6641 0,-3.1275 2.5364,-5.6639 5.664,-5.6639 z m -2.5488,5.6636 c -2e-4,1.392 1.1565,2.549 2.5485,2.5492 1.3921,0 2.549,-1.1564 2.5492,-2.5486 2e-4,-1.3338 -1.062,-2.4581 -2.3893,-2.543 -1.4553,-0.0931 -2.7084,1.0776 -2.7084,2.5424 z"
     id="path26"
     style="fill:#ca1b52;fill-opacity:1" /><path
     d="m 151.002,42.5872 c 30.1557,0 54.611,24.4553 54.611,54.611 0,30.1557 -24.4554,54.6109 -54.611,54.611 l -56.0832,4e-4 0,-109.222 56.0832,0 z m -4.4159,31.7951 c 12.5984,0 22.8159,10.2175 22.8159,22.8159 0,12.5984 -10.2175,22.8159 -22.8159,22.8159 -12.5984,0 -22.8159,-10.2175 -22.8159,-22.8159 0,-12.5984 10.2175,-22.8159 22.8159,-22.8159 z"
     id="path28"
     style="fill:#ca1b52;fill-opacity:1" /><path
     d="m 100.69,160.596 c 3.1028,0 5.619,2.5162 5.619,5.619 0,3.1027 -2.5162,5.6189 -5.619,5.619 l -5.7704,0 0,-11.238 5.7704,0 z m -0.4543,3.2714 c 1.2962,0 2.3475,1.0513 2.3475,2.3476 0,1.2962 -1.0513,2.3475 -2.3475,2.3475 -1.2963,0 -2.3476,-1.0513 -2.3476,-2.3475 0,-1.2963 1.0513,-2.3476 2.3476,-2.3476 z"
     id="path30"
     style="fill:#ca1b52;fill-opacity:1" /></g>
</svg>